ply
format ascii 1.0
comment Created by Blender 2.69 (sub 0) - www.blender.org, source file: 'WristwatchWithLedEnclosureMod.blend'
element vertex 562
property float x
property float y
property float z
property float nx
property float ny
property float nz
element face 566
property list uchar uint vertex_indices
end_header
100.000000 -1.000000 0.000000 0.769829 0.638203 0.000000
99.144478 -16.803429 -0.000020 0.994079 -0.108402 0.000000
96.487923 -16.379944 -25.000019 0.964843 -0.105258 -0.240730
97.320511 -0.999968 -25.000000 0.742332 0.642903 -0.188604
89.230042 -15.223030 -43.301292 0.775933 -0.084536 -0.625111
90.000000 -0.999945 -43.301270 0.602954 0.628346 -0.491501
79.315590 -13.642678 -50.000015 0.019227 -0.001129 -0.999786
80.000000 -0.999936 -50.000000 0.007385 0.600146 -0.799829
69.401138 -12.062345 -43.301289 -0.767876 0.083468 -0.635090
70.000000 -0.999945 -43.301270 -0.583117 0.663259 -0.469069
62.143257 -10.905477 -25.000013 -0.964354 0.104770 -0.242927
62.679489 -0.999968 -25.000000 -0.683737 0.710593 -0.165868
59.486694 -10.482057 -0.000012 -0.994140 0.108036 0.000000
60.000000 -1.000000 -0.000000 -0.686575 0.727012 0.000000
62.143257 -10.905541 24.999987 -0.964354 0.104770 0.242927
62.679489 -1.000032 25.000000 -0.683737 0.710593 0.165868
69.401138 -12.062455 43.301258 -0.767876 0.083438 0.635090
70.000000 -1.000055 43.301270 -0.583117 0.663259 0.469069
79.315590 -13.642806 49.999985 0.019227 -0.001129 0.999786
80.000000 -1.000064 50.000000 0.007385 0.600146 0.799829
89.230042 -15.223141 43.301254 0.775933 -0.084536 0.625111
90.000000 -1.000055 43.301270 0.602954 0.628346 0.491501
96.487923 -16.380009 24.999981 0.964843 -0.105258 0.240730
97.320511 -1.000032 25.000000 0.742332 0.642903 0.188604
96.592590 -32.336456 -0.000040 0.976226 -0.216712 0.000000
94.004402 -31.496765 -25.000038 0.947081 -0.210273 -0.242470
86.933334 -29.202755 -43.301308 0.760094 -0.168554 -0.627552
77.274071 -26.069099 -50.000031 0.019471 -0.002380 -0.999786
67.614815 -22.935463 -43.301300 -0.752068 0.166387 -0.637684
60.543739 -20.641499 -25.000025 -0.946684 0.209357 -0.244728
57.955555 -19.801872 -0.000024 -0.976379 0.216010 0.000000
60.543739 -20.641563 24.999975 -0.946684 0.209357 0.244728
67.614815 -22.935574 43.301247 -0.752068 0.166387 0.637684
77.274071 -26.069229 49.999969 0.019471 -0.002380 0.999786
86.933334 -29.202866 43.301239 0.760094 -0.168554 0.627552
94.004402 -31.496830 24.999962 0.947081 -0.210273 0.242470
92.387962 -47.333305 -0.000059 0.945830 -0.324595 0.000000
89.912430 -46.091778 -25.000057 0.916898 -0.314737 -0.245338
83.149170 -42.699913 -43.301327 0.733421 -0.251442 -0.631519
73.910370 -38.066578 -50.000046 0.019776 -0.003937 -0.999786
64.671570 -33.433254 -43.301315 -0.725486 0.248146 -0.641896
57.908302 -30.041449 -25.000036 -0.916745 0.313395 -0.247658
55.432777 -28.799982 -0.000036 -0.946165 0.323588 0.000000
57.908302 -30.041513 24.999964 -0.916745 0.313395 0.247658
64.671570 -33.433369 43.301231 -0.725486 0.248146 0.641896
73.910370 -38.066708 49.999954 0.019776 -0.003937 0.999786
83.149170 -42.700027 43.301220 0.733421 -0.251442 0.631519
89.912430 -46.091839 24.999943 0.916898 -0.314737 0.245338
86.602539 -61.537403 -0.000077 0.902066 -0.431532 0.000000
84.282028 -59.915283 -25.000076 0.873562 -0.417982 -0.249214
77.942284 -55.483604 -43.301338 0.695669 -0.332408 -0.636799
69.282028 -49.429859 -50.000061 0.020020 -0.005829 -0.999756
60.621777 -43.376125 -43.301323 -0.687796 0.327921 -0.647572
54.282028 -38.944508 -25.000048 -0.873653 0.416333 -0.251656
51.961521 -37.322445 -0.000046 -0.902676 0.430311 0.000000
54.282028 -38.944569 24.999952 -0.873653 0.416333 0.251656
60.621777 -43.376240 43.301216 -0.687796 0.327921 0.647572
69.282028 -49.429989 49.999939 0.020020 -0.005860 0.999756
77.942284 -55.483719 43.301201 0.695669 -0.332408 0.636799
84.282028 -59.915344 24.999924 0.873562 -0.417982 0.249214
79.335342 -74.705643 -0.000094 0.843837 -0.536576 0.000000
77.209557 -72.730675 -25.000092 0.816126 -0.519028 -0.253975
71.401810 -67.335030 -43.301353 0.646382 -0.410474 -0.643147
63.468277 -59.964455 -50.000076 0.019990 -0.008148 -0.999756
55.534744 -52.593899 -43.301334 -0.638661 0.404767 -0.654408
49.726990 -47.198296 -25.000059 -0.816523 0.517136 -0.256569
47.601208 -45.223392 -0.000057 -0.844722 0.535203 0.000000
49.726990 -47.198357 24.999941 -0.816523 0.517136 0.256569
55.534744 -52.594013 43.301205 -0.638661 0.404736 0.654408
63.468277 -59.964584 49.999924 0.019990 -0.008148 0.999756
71.401810 -67.335136 43.301186 0.646382 -0.410474 0.643147
77.209557 -72.730736 24.999908 0.816126 -0.519028 0.253975
70.710678 -86.612808 -0.000110 0.565264 -0.409436 0.716086
68.815987 -84.318787 -25.000107 0.629566 -0.456008 0.628986
63.639603 -78.051468 -43.301365 0.697195 -0.504990 0.508744
56.568535 -69.490181 -50.000088 -0.388745 0.401044 -0.829463
49.497467 -60.928902 -43.301342 -0.577776 0.477279 -0.662069
44.321091 -54.661636 -25.000069 -0.744194 0.614307 -0.262215
42.426399 -52.367676 -0.000066 -0.771081 0.636708 0.000000
44.321091 -54.661697 24.999931 -0.744194 0.614307 0.262215
49.497467 -60.929016 43.301189 -0.577776 0.477279 0.662069
56.568535 -69.490303 49.999912 -0.061769 0.063692 0.996033
63.639603 -78.051575 43.301167 0.335398 -0.242927 0.910184
68.815987 -84.318848 24.999893 0.487045 -0.352763 0.798944
48.700924 -77.843994 -50.000099 -0.636921 0.695639 0.332163
42.613304 -68.238495 -43.301353 -0.505112 0.543870 -0.670095
38.156860 -61.206799 -25.000076 -0.655873 0.705557 -0.268227
36.525692 -58.633041 -0.000074 -0.680685 0.732536 0.000000
38.156860 -61.206860 24.999924 -0.655873 0.705557 0.268227
42.613304 -68.238602 43.301178 -0.505112 0.543870 0.670095
48.700924 -77.844116 49.999901 -0.176397 0.192663 0.965270
40.000004 -84.883011 -50.000107 -0.534989 0.776696 0.332347
35.000004 -74.397636 -43.301369 -0.421033 0.602588 -0.677908
31.339752 -66.721825 -25.000084 -0.551134 0.788018 -0.274239
30.000004 -63.912304 -0.000080 -0.572985 0.819544 0.000000
31.339752 -66.721886 24.999916 -0.551134 0.788018 0.274239
35.000004 -74.397743 43.301178 -0.421033 0.602588 0.677908
40.000004 -84.883133 49.999893 -0.145146 0.210730 0.966674
30.614698 -90.486740 -50.000114 -0.417676 0.845363 0.332957
26.787861 -79.300903 -43.301373 -0.326456 0.651357 -0.684896
23.986420 -71.112312 -25.000090 -0.430525 0.858089 -0.279763
22.961023 -68.115105 -0.000086 -0.448317 0.893857 0.000000
23.986420 -71.112373 24.999910 -0.430525 0.858089 0.279763
26.787861 -79.301010 43.301174 -0.326456 0.651357 0.684896
30.614698 -90.486862 49.999886 -0.111240 0.225196 0.967925
20.705521 -94.559341 -50.000118 -0.286935 0.897916 0.333720
18.117332 -82.864426 -43.301369 -0.223060 0.688070 -0.690481
16.222645 -74.303169 -25.000093 -0.295969 0.911893 -0.284249
15.529139 -71.169548 -0.000090 -0.308603 0.951170 0.000000
16.222645 -74.303230 24.999907 -0.295969 0.911893 0.284249
18.117332 -82.864532 43.301163 -0.223060 0.688070 0.690481
20.705521 -94.559464 49.999882 -0.075320 0.235694 0.968871
10.442085 -97.031120 -50.000122 -0.146153 0.931028 0.334361
9.136822 -85.027222 -43.301373 -0.113224 0.710929 -0.694082
8.181307 -76.239784 -25.000095 -0.150822 0.945891 -0.287179
7.831564 -73.023384 -0.000092 -0.157414 0.987518 0.000000
8.181307 -76.239845 24.999905 -0.150822 0.945891 0.287179
9.136822 -85.027328 43.301159 -0.113224 0.710929 0.694082
10.442085 -97.031242 49.999878 -0.037996 0.242103 0.969481
0.000007 -97.859764 -50.000122 0.000000 0.942351 0.334605
0.000007 -85.752296 -43.301380 0.000000 0.718680 -0.695303
0.000005 -76.889030 -25.000097 0.000000 0.957549 -0.288186
0.000007 -73.644867 -0.000093 0.000000 0.999969 0.000000
0.000005 -76.889091 24.999903 0.000000 0.957549 0.288186
0.000007 -85.752403 43.301167 0.000000 0.718680 0.695303
0.000007 -97.859886 49.999878 0.000000 0.244240 0.969695
-10.442102 -97.031105 -50.000114 0.146153 0.931028 0.334361
-9.136841 -85.027222 -43.301373 0.113224 0.710929 -0.694082
-8.181322 -76.239777 -25.000092 0.150822 0.945891 -0.287179
-7.831578 -73.023376 -0.000092 0.157414 0.987518 0.000000
-8.181322 -76.239838 24.999901 0.150822 0.945891 0.287179
-9.136841 -85.027328 43.301159 0.113224 0.710929 0.694082
-10.442102 -97.031227 49.999870 0.037996 0.242103 0.969481
-20.705517 -94.559349 -50.000118 0.286935 0.897916 0.333720
-18.117329 -82.864441 -43.301376 0.223060 0.688070 -0.690481
-16.222641 -74.303169 -25.000093 0.295969 0.911893 -0.284249
-15.529137 -71.169556 -0.000090 0.308603 0.951170 0.000000
-16.222641 -74.303230 24.999907 0.295969 0.911893 0.284249
-18.117329 -82.864548 43.301170 0.223060 0.688070 0.690481
-20.705517 -94.559471 49.999882 0.075320 0.235694 0.968871
-30.614677 -90.486740 -50.000111 0.417676 0.845363 0.332957
-26.787842 -79.300896 -43.301361 0.326456 0.651357 -0.684896
-23.986401 -71.112312 -25.000088 0.430525 0.858089 -0.279763
-22.961008 -68.115105 -0.000086 0.448317 0.893857 0.000000
-23.986401 -71.112373 24.999908 0.430525 0.858089 0.279763
-26.787842 -79.301003 43.301163 0.326456 0.651357 0.684896
-30.614677 -90.486862 49.999882 0.111240 0.225196 0.967925
-39.999985 -84.883011 -50.000103 0.534989 0.776696 0.332347
-34.999985 -74.397636 -43.301365 0.421033 0.602588 -0.677908
-31.339733 -66.721825 -25.000082 0.551134 0.788018 -0.274239
-29.999985 -63.912304 -0.000080 0.572985 0.819544 0.000000
-31.339733 -66.721886 24.999914 0.551134 0.788018 0.274239
-34.999985 -74.397743 43.301174 0.421033 0.602588 0.677908
-39.999985 -84.883133 49.999889 0.145146 0.210730 0.966674
-48.700920 -77.844002 -50.000099 0.636921 0.695639 0.332163
-42.613304 -68.238503 -43.301357 0.505112 0.543870 -0.670095
-38.156860 -61.206806 -25.000076 0.655873 0.705557 -0.268227
-36.525688 -58.633049 -0.000074 0.680685 0.732536 0.000000
-38.156860 -61.206867 24.999924 0.655873 0.705557 0.268227
-42.613304 -68.238609 43.301182 0.505112 0.543870 0.670095
-48.700920 -77.844124 49.999901 0.176397 0.192663 0.965270
-56.568558 -69.490158 -50.000088 0.388745 0.401044 -0.829463
-49.497486 -60.928886 -43.301346 0.577776 0.477279 -0.662069
-44.321102 -54.661621 -25.000069 0.744194 0.614307 -0.262215
-42.426414 -52.367664 -0.000066 0.771081 0.636708 0.000000
-44.321102 -54.661682 24.999931 0.744194 0.614307 0.262215
-49.497486 -60.929001 43.301193 0.577776 0.477279 0.662069
-56.568558 -69.490280 49.999912 0.061769 0.063692 0.996033
-70.710686 -86.612770 -0.000110 -0.565264 -0.409436 0.716086
-79.335327 -74.705658 -0.000094 -0.843837 -0.536576 0.000000
-77.209557 -72.730698 -25.000092 -0.816126 -0.519028 -0.253975
-68.816010 -84.318764 -25.000107 -0.629566 -0.456008 0.628986
-71.401802 -67.335045 -43.301350 -0.646382 -0.410474 -0.643147
-63.639622 -78.051445 -43.301369 -0.697195 -0.504990 0.508744
-63.468266 -59.964462 -50.000076 -0.019990 -0.008148 -0.999756
-55.534737 -52.593903 -43.301331 0.638661 0.404767 -0.654408
-49.726982 -47.198299 -25.000059 0.816523 0.517136 -0.256569
-47.601200 -45.223392 -0.000057 0.844722 0.535203 0.000000
-49.726982 -47.198360 24.999941 0.816523 0.517136 0.256569
-55.534737 -52.594017 43.301201 0.638661 0.404736 0.654408
-63.468266 -59.964592 49.999924 -0.019990 -0.008148 0.999756
-71.401802 -67.335152 43.301182 -0.646382 -0.410474 0.643147
-63.639622 -78.051552 43.301170 -0.335398 -0.242927 0.910184
-77.209557 -72.730759 24.999908 -0.816126 -0.519028 0.253975
-68.816010 -84.318825 24.999893 -0.487045 -0.352763 0.798944
-86.602524 -61.537426 -0.000077 -0.902066 -0.431532 0.000000
-84.282028 -59.915295 -25.000076 -0.873562 -0.417982 -0.249214
-77.942284 -55.483627 -43.301342 -0.695669 -0.332408 -0.636799
-69.282021 -49.429878 -50.000061 -0.020020 -0.005829 -0.999756
-60.621773 -43.376141 -43.301327 0.687796 0.327921 -0.647572
-54.282028 -38.944523 -25.000048 0.873653 0.416333 -0.251656
-51.961521 -37.322456 -0.000046 0.902676 0.430311 0.000000
-54.282028 -38.944584 24.999952 0.873653 0.416333 0.251656
-60.621773 -43.376255 43.301220 0.687796 0.327921 0.647572
-69.282021 -49.430008 49.999939 -0.020020 -0.005860 0.999756
-77.942284 -55.483742 43.301205 -0.695669 -0.332408 0.636799
-84.282028 -59.915356 24.999924 -0.873562 -0.417982 0.249214
-92.387939 -47.333321 -0.000059 -0.945830 -0.324595 0.000000
-89.912415 -46.091793 -25.000055 -0.916898 -0.314737 -0.245338
-83.149147 -42.699932 -43.301319 -0.733421 -0.251442 -0.631519
-73.910355 -38.066589 -50.000042 -0.019776 -0.003937 -0.999786
-64.671562 -33.433266 -43.301308 0.725486 0.248146 -0.641896
-57.908291 -30.041456 -25.000034 0.916745 0.313395 -0.247658
-55.432762 -28.799992 -0.000036 0.946165 0.323588 0.000000
-57.908291 -30.041521 24.999962 0.916745 0.313395 0.247658
-64.671562 -33.433380 43.301224 0.725486 0.248146 0.641896
-73.910355 -38.066719 49.999950 -0.019776 -0.003937 0.999786
-83.149147 -42.700047 43.301212 -0.733421 -0.251442 0.631519
-89.912415 -46.091854 24.999941 -0.916898 -0.314737 0.245338
-96.592590 -32.336441 -0.000040 -0.976226 -0.216712 0.000000
-94.004402 -31.496754 -25.000038 -0.947081 -0.210273 -0.242470
-86.933334 -29.202744 -43.301308 -0.760063 -0.168554 -0.627552
-77.274071 -26.069092 -50.000031 -0.019471 -0.002380 -0.999786
-67.614815 -22.935455 -43.301300 0.752068 0.166387 -0.637684
-60.543739 -20.641491 -25.000025 0.946684 0.209357 -0.244728
-57.955555 -19.801867 -0.000024 0.976379 0.216010 0.000000
-60.543739 -20.641556 24.999975 0.946684 0.209357 0.244728
-67.614815 -22.935566 43.301247 0.752068 0.166387 0.637684
-77.274071 -26.069221 49.999969 -0.019471 -0.002411 0.999786
-86.933334 -29.202854 43.301239 -0.760094 -0.168554 0.627552
-94.004402 -31.496819 24.999962 -0.947081 -0.210273 0.242470
-99.144478 -16.803448 -0.000020 -0.994079 -0.108402 0.000000
-96.487923 -16.379963 -25.000019 -0.964843 -0.105258 -0.240730
-89.230042 -15.223047 -43.301292 -0.775933 -0.084536 -0.625111
-79.315590 -13.642693 -50.000015 -0.019227 -0.001129 -0.999786
-69.401138 -12.062357 -43.301289 0.767876 0.083468 -0.635090
-62.143257 -10.905487 -25.000013 0.964354 0.104770 -0.242927
-59.486694 -10.482068 -0.000012 0.994140 0.108036 0.000000
-62.143257 -10.905552 24.999987 0.964354 0.104770 0.242927
-69.401138 -12.062468 43.301258 0.767876 0.083438 0.635090
-79.315590 -13.642820 49.999985 -0.019227 -0.001129 0.999786
-89.230042 -15.223158 43.301254 -0.775933 -0.084536 0.625111
-96.487923 -16.380028 24.999981 -0.964843 -0.105258 0.240730
-100.000000 -1.000011 -0.000000 -0.769829 0.638203 0.000000
-97.320511 -0.999978 -25.000000 -0.742332 0.642903 -0.188604
-90.000000 -0.999954 -43.301270 -0.602954 0.628346 -0.491501
-80.000000 -0.999945 -50.000000 -0.007385 0.600146 -0.799829
-70.000000 -0.999952 -43.301270 0.583117 0.663259 -0.469069
-62.679489 -0.999975 -25.000000 0.683737 0.710593 -0.165868
-60.000000 -1.000006 -0.000000 0.686575 0.727012 0.000000
-62.679489 -1.000039 25.000000 0.683737 0.710593 0.165868
-70.000000 -1.000063 43.301270 0.583117 0.663259 0.469069
-80.000000 -1.000072 50.000000 -0.007385 0.600146 0.799829
-90.000000 -1.000065 43.301270 -0.602954 0.628346 0.491501
-97.320511 -1.000042 25.000000 -0.742332 0.642903 0.188604
-48.700920 -77.844124 49.999901 -0.638966 -0.698050 0.323099
-39.999985 -84.883133 49.999889 -0.536576 -0.779199 0.323862
-68.816010 -84.318825 24.999893 0.517228 -0.427198 0.741569
-63.639622 -78.051552 43.301170 0.483779 -0.399548 0.778619
30.614698 -90.486862 49.999886 0.418836 -0.847896 0.324961
40.000004 -84.883133 49.999893 0.536576 -0.779199 0.323862
48.700924 -77.844116 49.999901 0.638966 -0.698050 0.323099
-68.816010 -84.318764 -25.000107 0.517228 -0.427198 0.741569
-70.710686 -86.612770 -0.000110 0.523423 -0.432295 0.734245
-20.705517 -94.559349 -50.000118 -0.071078 -0.222510 0.972320
-30.614677 -90.486740 -50.000111 -0.105045 -0.212653 0.971435
-39.999985 -84.883011 -50.000103 -0.137120 -0.199133 0.970306
-48.700920 -77.844002 -50.000099 -0.166723 -0.182134 0.969024
20.705521 -94.559341 -50.000118 -0.005432 -0.173864 0.984741
10.442085 -97.031120 -50.000122 0.286538 -0.368175 0.884457
0.000007 -97.859886 49.999878 -0.387341 -0.688681 0.612873
10.442085 -97.031242 49.999878 0.484848 -0.622944 0.613880
70.710678 -86.612808 -0.000110 -0.523423 -0.432295 0.734245
68.815987 -84.318787 -25.000107 -0.517228 -0.427198 0.741569
56.568535 -69.490303 49.999912 -0.368664 -0.695700 0.616474
40.000004 -84.883011 -50.000107 0.137120 -0.199133 0.970306
30.614698 -90.486740 -50.000114 0.105045 -0.212653 0.971435
63.639603 -78.051468 -43.301365 -0.483779 -0.399548 0.778619
56.568535 -69.490181 -50.000088 -0.197882 -0.373455 0.906278
0.000007 -97.859764 -50.000122 -0.223243 -0.396924 0.890255
-10.442102 -97.031105 -50.000114 0.030366 -0.173223 0.984405
68.815987 -84.318848 24.999893 -0.517228 -0.427198 0.741569
48.700924 -77.843994 -50.000099 0.166723 -0.182134 0.969024
-63.639622 -78.051445 -43.301369 0.483779 -0.399548 0.778619
-56.568558 -69.490158 -50.000088 0.197882 -0.373455 0.906278
63.639603 -78.051575 43.301167 -0.483779 -0.399548 0.778619
-30.614677 -90.486862 49.999882 -0.418836 -0.847896 0.324961
-20.705517 -94.559471 49.999882 -0.287698 -0.900449 0.326182
20.705521 -94.559464 49.999882 -0.029267 -0.937132 0.347697
-10.442102 -97.031227 49.999870 0.161931 -0.923093 0.348735
-56.568558 -69.490280 49.999912 0.368664 -0.695700 0.616474
90.382553 -0.449570 -15.108340 -0.607715 0.779321 0.152593
89.598068 -15.281797 -15.092489 -0.964446 0.104709 0.242622
91.213081 -15.539434 -0.000019 -0.994140 0.107852 0.000000
92.017334 -0.366525 0.000001 -0.630696 0.775994 0.000000
85.938347 -0.677761 -26.083946 -0.465133 0.804254 0.369823
85.200867 -14.581005 -26.074200 -0.771203 0.083804 0.631001
79.913818 -0.993163 -30.001221 -0.024415 0.855770 0.516739
79.230133 -13.629107 -30.001236 -0.006928 -0.000214 0.999969
73.932495 -1.311827 -25.896561 0.506821 0.754357 0.417127
73.301895 -12.684017 -25.888035 0.773034 -0.084262 0.628712
69.574478 -1.547140 -14.922179 0.697897 0.695181 0.172033
68.990395 -11.996851 -14.905711 0.964812 -0.105502 0.240761
67.982666 -1.633475 -0.000001 0.730094 0.683309 0.000000
67.418091 -11.746050 -0.000014 0.994049 -0.108860 0.000000
69.574478 -1.547178 14.922177 0.697897 0.695181 -0.172033
68.990395 -11.996889 14.905683 0.964812 -0.105502 -0.240761
73.932495 -1.311893 25.896561 0.506821 0.754387 -0.417127
73.301895 -12.684084 25.888004 0.773034 -0.084262 -0.628712
79.913818 -0.993240 30.001221 -0.024415 0.855770 -0.516739
79.230133 -13.629183 30.001205 -0.006928 -0.000214 -0.999969
85.938347 -0.677827 26.083946 -0.465133 0.804254 -0.369793
85.200867 -14.581072 26.074165 -0.771203 0.083804 -0.631001
90.382553 -0.449609 15.108342 -0.607715 0.779321 -0.152562
89.598068 -15.281836 15.092453 -0.964446 0.104709 -0.242622
87.292038 -29.319378 -15.092507 -0.946593 0.210181 0.244453
88.865295 -29.829750 -0.000037 -0.976226 0.216712 0.000000
83.007927 -27.929325 -26.074217 -0.755364 0.167486 0.633503
77.190811 -26.042225 -30.001253 -0.007477 -0.000244 0.999969
71.415222 -24.168440 -25.888050 0.757073 -0.167486 0.631458
67.214592 -22.805613 -14.905725 0.947203 -0.209479 0.242622
65.682838 -22.308575 -0.000027 0.976379 -0.216010 0.000000
67.214592 -22.805651 14.905669 0.947203 -0.209479 -0.242622
71.415222 -24.168505 25.887989 0.757073 -0.167486 -0.631458
77.190811 -26.042301 30.001188 -0.007477 -0.000244 -0.999969
83.007927 -27.929390 26.074148 -0.755364 0.167486 -0.633503
87.292038 -29.319416 15.092435 -0.946593 0.210181 -0.244453
83.492065 -42.872093 -15.092525 -0.916410 0.314554 0.247322
84.997108 -43.626755 -0.000055 -0.945830 0.324595 0.000000
79.394653 -40.816952 -26.074234 -0.728843 0.249825 0.637440
73.830780 -38.026699 -30.001268 -0.008209 0.000000 0.999939
68.306450 -35.256252 -25.888063 0.730338 -0.249794 0.635731
64.288628 -33.241352 -14.905738 0.917234 -0.313578 0.245552
62.823631 -32.506531 -0.000040 0.946165 -0.323588 0.000000
64.288628 -33.241390 14.905656 0.917234 -0.313578 -0.245552
68.306450 -35.256321 25.887976 0.730338 -0.249794 -0.635731
73.830780 -38.026775 30.001173 -0.008209 0.000000 -0.999939
79.394653 -40.817020 26.074131 -0.728843 0.249825 -0.637440
83.492065 -42.872131 15.092418 -0.916410 0.314554 -0.247322
78.263771 -55.708588 -15.092541 -0.873104 0.417768 0.251228
79.674347 -56.694561 -0.000071 -0.902066 0.431532 0.000000
74.422890 -53.023632 -26.074247 -0.691275 0.330271 0.642659
69.207565 -49.377861 -30.001282 -0.009064 0.000610 0.999939
64.029106 -45.757812 -25.888075 0.692465 -0.330149 0.641438
60.262924 -43.125214 -14.905751 0.874172 -0.416578 0.249519
58.889713 -42.165287 -0.000053 0.902676 -0.430311 0.000000
60.262924 -43.125252 14.905643 0.874172 -0.416578 -0.249519
64.029106 -45.757881 25.887960 0.692465 -0.330149 -0.641438
69.207565 -49.377937 30.001160 -0.009064 0.000610 -0.999939
74.422890 -53.023701 26.074114 -0.691275 0.330271 -0.642659
78.263771 -55.708626 15.092402 -0.873104 0.417768 -0.251228
71.696457 -67.608795 -15.092556 -0.815394 0.519211 0.255959
72.988716 -68.809273 -0.000087 -0.843471 0.537126 0.000000
68.177826 -64.339722 -26.074261 -0.649983 0.407239 0.641591
63.399918 -59.900928 -30.001297 -0.011902 0.003113 0.999908
58.656178 -55.493774 -25.888088 0.642689 -0.402600 0.651753
55.205917 -52.288570 -14.905763 0.816980 -0.517441 0.254402
53.947838 -51.119762 -0.000064 0.844691 -0.535203 0.000000
55.205917 -52.288609 14.905631 0.816980 -0.517441 -0.254402
58.656178 -55.493843 25.887947 0.642689 -0.402600 -0.651753
63.399918 -59.901005 30.001144 -0.011902 0.003113 -0.999908
68.177826 -64.339783 26.074100 -0.649983 0.407239 -0.641591
71.696457 -67.608841 15.092386 -0.815394 0.519211 -0.255959
63.588528 -78.768272 -15.108440 0.180486 -0.113071 0.977050
64.696091 -80.226624 -0.000101 0.569903 0.821680 0.000000
60.579453 -74.802231 -26.084038 -0.907254 -0.272073 0.320688
56.982368 -70.075790 -30.063564 -0.146702 -0.659444 0.737266
52.279533 -64.297310 -25.888094 0.577136 -0.467055 0.669881
49.204540 -60.574276 -14.905773 0.744652 -0.614673 0.259987
48.083069 -59.216473 -0.000074 0.771081 -0.636708 0.000000
49.204540 -60.574314 14.905621 0.744652 -0.614673 -0.259987
52.279533 -64.297379 25.887934 0.577136 -0.467055 -0.669881
56.982368 -70.075867 30.063389 -0.146702 -0.659444 -0.737266
60.579453 -74.802292 26.083847 -0.907254 -0.272073 -0.320688
63.588528 -78.768318 15.108242 0.180486 -0.113071 -0.977050
45.008396 -72.017784 -25.888105 0.496597 -0.530259 0.687124
49.961212 -79.832825 -30.681885 0.683126 -0.702109 0.200842
42.361092 -67.840408 -14.905783 0.656301 -0.706046 0.265969
41.395718 -66.317215 -0.000084 0.680685 -0.732536 0.000000
42.361092 -67.840439 14.905611 0.656301 -0.706046 -0.265969
45.008396 -72.017845 25.887922 0.496597 -0.530259 -0.687124
49.961212 -79.832901 30.681683 0.683126 -0.702109 -0.200842
36.967106 -78.523079 -25.888119 0.410596 -0.587848 0.696982
41.035194 -87.053932 -30.681894 0.555589 -0.804865 0.208472
34.792740 -73.963196 -14.905790 0.551500 -0.788568 0.271950
33.999882 -72.300598 -0.000091 0.572954 -0.819544 0.000000
34.792740 -73.963226 14.905603 0.551500 -0.788568 -0.271950
36.967106 -78.523140 25.887920 0.410596 -0.587848 -0.696982
41.035194 -87.054008 30.681673 0.555589 -0.804865 -0.208472
28.293522 -83.701843 -25.888124 0.318308 -0.635273 0.703604
31.406958 -92.802803 -30.681902 0.434065 -0.876705 0.207251
26.629082 -78.837288 -14.905796 0.430830 -0.858699 0.277444
26.022396 -77.063560 -0.000097 0.448317 -0.893857 0.000000
26.629324 -78.837318 14.905598 0.430830 -0.858699 -0.277444
28.293522 -83.701904 25.887915 0.318308 -0.635273 -0.703604
31.406958 -92.802879 30.681665 0.434065 -0.876705 -0.207251
19.135674 -87.465790 -25.888124 0.217444 -0.670980 0.708853
21.241180 -96.980644 -30.681906 0.345470 -0.910337 0.227821
18.010052 -82.379906 -14.905801 0.296182 -0.912564 0.281899
17.599514 -80.525345 -0.000102 0.308603 -0.951170 0.000000
18.010052 -82.379936 14.905593 0.296182 -0.912564 -0.281899
19.135674 -87.465851 25.887903 0.217444 -0.670980 -0.708853
21.241180 -96.980721 30.681662 0.345470 -0.910337 -0.227821
9.650266 -89.750076 -25.888128 0.110355 -0.693167 0.712241
10.712113 -99.516563 -30.681910 0.195837 -0.946593 0.256081
9.082702 -84.529953 -14.905804 0.150945 -0.946593 0.284799
8.875541 -82.626305 -0.000104 0.157414 -0.987518 0.000000
9.082702 -84.529984 14.905590 0.150945 -0.946593 -0.284799
9.650266 -89.750137 25.887899 0.110355 -0.693167 -0.712241
10.712113 -99.516640 30.681658 0.195837 -0.946593 -0.256081
0.000007 -90.515945 -25.888134 0.000000 -0.700705 0.713401
0.000007 -100.366493 -30.681911 -0.048006 -0.965728 0.254982
0.000005 -85.250740 -14.905805 0.000000 -0.958251 0.285806
0.000007 -83.330551 -0.000105 0.000000 -1.000000 0.000000
0.000005 -85.250771 14.905589 0.000000 -0.958251 -0.285806
0.000007 -90.516006 25.887905 0.000000 -0.700705 -0.713401
0.000007 -100.366570 30.681656 -0.048006 -0.965728 -0.254982
-9.650285 -89.750069 -25.888128 -0.110355 -0.693167 0.712241
-10.712130 -99.516548 -30.681904 -0.202307 -0.952879 0.225959
-9.082716 -84.529945 -14.905801 -0.150945 -0.946593 0.284799
-8.875555 -82.626289 -0.000104 -0.157414 -0.987518 0.000000
-9.082716 -84.529976 14.905587 -0.150945 -0.946593 -0.284799
-9.650285 -89.750130 25.887899 -0.110355 -0.693167 -0.712241
-10.712130 -99.516624 30.681652 -0.202307 -0.952879 -0.225959
-19.135670 -87.465805 -25.888130 -0.217444 -0.670980 0.708853
-21.241177 -96.980644 -30.681906 -0.298410 -0.931883 0.206214
-18.010050 -82.379913 -14.905801 -0.296182 -0.912564 0.281899
-17.599512 -80.525352 -0.000102 -0.308603 -0.951170 0.000000
-18.010050 -82.379944 14.905593 -0.296182 -0.912564 -0.281899
-19.135670 -87.465866 25.887909 -0.217444 -0.670980 -0.708853
-21.241177 -96.980721 30.681662 -0.298410 -0.931883 -0.206214
-28.293503 -83.701836 -25.888115 -0.318308 -0.635273 0.703604
-31.406937 -92.802803 -30.681898 -0.434065 -0.876705 0.207251
-26.629305 -78.837288 -14.905795 -0.430830 -0.858699 0.277444
-26.022381 -77.063560 -0.000097 -0.448317 -0.893857 0.000000
-26.629305 -78.837318 14.905597 -0.430830 -0.858699 -0.277444
-28.293503 -83.701897 25.887905 -0.318308 -0.635273 -0.703604
-31.406937 -92.802879 30.681662 -0.434065 -0.876705 -0.207251
-36.967087 -78.523079 -25.888117 -0.410596 -0.587848 0.696982
-41.035175 -87.053932 -30.681890 -0.555589 -0.804865 0.208472
-34.792717 -73.963196 -14.905789 -0.551500 -0.788568 0.271950
-33.999863 -72.300598 -0.000091 -0.572985 -0.819544 0.000000
-34.792717 -73.963226 14.905602 -0.551500 -0.788568 -0.271950
-36.967087 -78.523140 25.887918 -0.410596 -0.587848 -0.696982
-41.035175 -87.054008 30.681669 -0.555589 -0.804865 -0.208472
-45.008396 -72.017799 -25.888109 -0.496597 -0.530259 0.687124
-49.961208 -79.832832 -30.681885 -0.683126 -0.702109 0.200842
-42.361092 -67.840416 -14.905783 -0.656301 -0.706046 0.265969
-41.395714 -66.317215 -0.000084 -0.680685 -0.732536 0.000000
-42.361092 -67.840446 14.905611 -0.656301 -0.706046 -0.265969
-45.008396 -72.017860 25.887926 -0.496597 -0.530259 -0.687124
-49.961208 -79.832909 30.681683 -0.683126 -0.702109 -0.200842
-52.279552 -64.297287 -25.888098 -0.577136 -0.467055 0.669881
-56.982388 -70.075768 -30.063564 0.146702 -0.659444 0.737266
-49.204556 -60.574261 -14.905773 -0.744652 -0.614673 0.259987
-48.083080 -59.216461 -0.000074 -0.771081 -0.636708 0.000000
-49.204556 -60.574299 14.905621 -0.744652 -0.614673 -0.259987
-52.279552 -64.297363 25.887938 -0.577136 -0.467055 -0.669881
-56.982388 -70.075844 30.063389 0.146702 -0.659444 -0.737266
-63.588554 -78.768250 -15.108440 -0.180456 -0.113132 0.977050
-71.696442 -67.608810 -15.092556 0.815394 0.519211 0.255959
-72.988693 -68.809288 -0.000087 0.843471 0.537126 0.000000
-64.696106 -80.226585 -0.000101 -0.569903 0.821680 0.000000
-60.579472 -74.802208 -26.084042 0.907254 -0.272073 0.320688
-68.177826 -64.339737 -26.074257 0.649983 0.407239 0.641591
-63.399906 -59.900936 -30.001297 0.011902 0.003113 0.999908
-58.656166 -55.493778 -25.888084 -0.642689 -0.402600 0.651753
-55.205910 -52.288574 -14.905763 -0.816980 -0.517441 0.254402
-53.947830 -51.119762 -0.000064 -0.844691 -0.535203 0.000000
-55.205910 -52.288612 14.905631 -0.816980 -0.517441 -0.254402
-58.656166 -55.493847 25.887943 -0.642689 -0.402600 -0.651753
-63.399906 -59.901012 30.001144 0.011902 0.003113 -0.999908
-60.579472 -74.802269 26.083851 0.907254 -0.272073 -0.320688
-68.177826 -64.339798 26.074097 0.649983 0.407239 -0.641591
-63.588554 -78.768295 15.108242 -0.180456 -0.113132 -0.977050
-71.696442 -67.608856 15.092386 0.815394 0.519211 -0.255959
-78.263771 -55.708599 -15.092541 0.873104 0.417768 0.251228
-79.674332 -56.694584 -0.000071 0.902066 0.431532 0.000000
-74.422890 -53.023655 -26.074249 0.691275 0.330271 0.642659
-69.207558 -49.377876 -30.001282 0.009064 0.000610 0.999939
-64.029099 -45.757824 -25.888077 -0.692465 -0.330149 0.641438
-60.262924 -43.125229 -14.905751 -0.874172 -0.416578 0.249519
-58.889713 -42.165298 -0.000053 -0.902676 -0.430311 0.000000
-60.262924 -43.125267 14.905643 -0.874172 -0.416578 -0.249519
-64.029099 -45.757893 25.887962 -0.692465 -0.330149 -0.641438
-69.207558 -49.377953 30.001160 0.009064 0.000610 -0.999939
-74.422890 -53.023724 26.074116 0.691275 0.330271 -0.642659
-78.263771 -55.708637 15.092402 0.873104 0.417768 -0.251228
-83.492050 -42.872108 -15.092522 0.916410 0.314554 0.247322
-84.997093 -43.626770 -0.000055 0.945830 0.324595 0.000000
-79.394638 -40.816971 -26.074228 0.728843 0.249825 0.637440
-73.830765 -38.026711 -30.001265 0.008209 0.000000 0.999939
-68.306435 -35.256264 -25.888058 -0.730338 -0.249794 0.635731
-64.288620 -33.241360 -14.905737 -0.917234 -0.313578 0.245552
-62.823616 -32.506542 -0.000040 -0.946165 -0.323588 0.000000
-64.288620 -33.241398 14.905655 -0.917234 -0.313578 -0.245552
-68.306435 -35.256332 25.887970 -0.730338 -0.249794 -0.635731
-73.830765 -38.026787 30.001169 0.008209 0.000000 -0.999939
-79.394638 -40.817039 26.074125 0.728843 0.249825 -0.637440
-83.492050 -42.872147 15.092415 0.916410 0.314554 -0.247322
-87.292038 -29.319366 -15.092507 0.946593 0.210181 0.244453
-88.865295 -29.829739 -0.000037 0.976226 0.216712 0.000000
-83.007927 -27.929314 -26.074217 0.755364 0.167486 0.633503
-77.190811 -26.042217 -30.001253 0.007477 -0.000244 0.999969
-71.415222 -24.168434 -25.888050 -0.757073 -0.167486 0.631458
-67.214592 -22.805605 -14.905725 -0.947203 -0.209479 0.242622
-65.682838 -22.308569 -0.000027 -0.976379 -0.216010 0.000000
-67.214592 -22.805643 14.905669 -0.947203 -0.209479 -0.242622
-71.415222 -24.168499 25.887989 -0.757073 -0.167486 -0.631458
-77.190811 -26.042294 30.001188 0.007477 -0.000244 -0.999969
-83.007927 -27.929379 26.074148 0.755364 0.167486 -0.633503
-87.292038 -29.319405 15.092435 0.946593 0.210181 -0.244453
-89.598068 -15.281815 -15.092489 0.964446 0.104709 0.242622
-91.213081 -15.539453 -0.000019 0.994140 0.107852 0.000000
-85.200867 -14.581022 -26.074200 0.771203 0.083804 0.631001
-79.230133 -13.629121 -30.001236 0.006928 -0.000214 0.999969
-73.301895 -12.684030 -25.888035 -0.773034 -0.084262 0.628712
-68.990395 -11.996861 -14.905711 -0.964812 -0.105502 0.240761
-67.418091 -11.746060 -0.000014 -0.994049 -0.108860 0.000000
-68.990395 -11.996900 14.905683 -0.964812 -0.105502 -0.240761
-73.301895 -12.684096 25.888004 -0.773034 -0.084262 -0.628712
-79.230133 -13.629197 30.001205 0.006928 -0.000214 -0.999969
-85.200867 -14.581089 26.074165 0.771203 0.083804 -0.631001
-89.598068 -15.281853 15.092453 0.964446 0.104709 -0.242622
-90.382553 -0.449580 -15.108340 0.607715 0.779321 0.152593
-92.017334 -0.366536 0.000001 0.630696 0.775994 0.000000
-85.938347 -0.677770 -26.083946 0.465133 0.804254 0.369823
-79.913818 -0.993171 -30.001221 0.024415 0.855770 0.516739
-73.932495 -1.311834 -25.896561 -0.506821 0.754357 0.417127
-69.574478 -1.547146 -14.922179 -0.697897 0.695181 0.172033
-67.982666 -1.633481 -0.000001 -0.730094 0.683309 0.000000
-69.574478 -1.547184 14.922177 -0.697897 0.695181 -0.172033
-73.932495 -1.311900 25.896561 -0.506821 0.754387 -0.417127
-79.913818 -0.993248 30.001221 0.024415 0.855770 -0.516739
-85.938347 -0.677837 26.083946 0.465133 0.804254 -0.369793
-90.382553 -0.449619 15.108342 0.607715 0.779321 -0.152562
-36.119495 -76.745514 45.149292 -0.563860 -0.798517 -0.210639
-43.976410 -70.389343 45.149300 -0.688314 -0.689200 -0.226234
-58.084763 -71.326019 39.521767 0.771325 -0.636402 0.004395
-63.188881 -77.505791 22.955774 0.722678 -0.690329 0.033753
36.119514 -76.745514 45.149292 0.563860 -0.798517 -0.210639
27.644636 -81.805634 45.149284 0.441816 -0.872097 -0.210303
43.976410 -70.389336 45.149300 0.688314 -0.689200 -0.226234
-65.054024 -79.763969 -0.000101 -0.029145 -0.999573 0.000000
-63.188881 -77.505730 -22.955969 0.722678 -0.690329 -0.033753
-27.644859 -81.805511 -45.149490 -0.441816 -0.872066 0.210303
-18.696911 -85.482895 -45.149494 -0.304483 -0.929044 0.209998
-43.976410 -70.389221 -45.149475 -0.688314 -0.689200 0.226234
-36.119495 -76.745392 -45.149483 -0.563860 -0.798517 0.210639
9.918876 -87.366127 -50.000111 0.836360 -0.546251 0.045442
18.696915 -85.482895 -45.149494 0.291757 -0.942808 0.161138
9.918876 -87.366249 49.999889 0.836360 -0.546251 -0.045442
-0.523202 -88.194893 49.999889 -0.763115 -0.645955 -0.019562
63.188858 -77.505753 -22.955969 -0.722678 -0.690329 -0.033753
65.054008 -79.764008 -0.000101 0.029145 -0.999573 0.000000
51.080818 -62.846058 45.149307 0.141484 -0.971648 -0.189245
27.644636 -81.805511 -45.149490 0.441816 -0.872097 0.210303
36.119514 -76.745392 -45.149483 0.563860 -0.798517 0.210639
51.080818 -62.845943 -45.149467 0.141484 -0.971648 0.189245
58.084747 -71.325935 -39.521946 -0.771325 -0.636402 -0.004395
-9.429132 -87.714920 -45.149494 -0.140049 -0.977477 0.157842
-0.523202 -88.194771 -50.000111 -0.763115 -0.645955 0.019562
63.188858 -77.505814 22.955774 -0.722678 -0.690329 0.033753
43.976410 -70.389214 -45.149475 0.688314 -0.689200 0.226234
-58.084763 -71.325912 -39.521950 0.771325 -0.636402 -0.004395
-51.080837 -62.845921 -45.149467 -0.141484 -0.971648 0.189245
58.084747 -71.326042 39.521763 -0.771325 -0.636402 0.004395
-18.696911 -85.483017 45.149281 -0.304483 -0.929044 -0.209998
-27.644859 -81.805634 45.149284 -0.441816 -0.872066 -0.210303
18.696915 -85.483017 45.149281 0.291757 -0.942808 -0.161138
-9.429132 -87.715042 45.149273 -0.140049 -0.977477 -0.157842
-51.080837 -62.846035 45.149307 -0.141484 -0.971648 -0.189245
4 0 1 2 3
4 3 2 4 5
4 5 4 6 7
4 7 6 8 9
4 9 8 10 11
4 11 10 12 13
4 13 12 14 15
4 15 14 16 17
4 17 16 18 19
4 19 18 20 21
4 21 20 22 23
4 0 23 22 1
4 1 24 25 2
4 2 25 26 4
4 4 26 27 6
4 6 27 28 8
4 8 28 29 10
4 10 29 30 12
4 12 30 31 14
4 14 31 32 16
4 16 32 33 18
4 18 33 34 20
4 20 34 35 22
4 22 35 24 1
4 24 36 37 25
4 25 37 38 26
4 26 38 39 27
4 27 39 40 28
4 28 40 41 29
4 29 41 42 30
4 30 42 43 31
4 31 43 44 32
4 32 44 45 33
4 33 45 46 34
4 34 46 47 35
4 35 47 36 24
4 36 48 49 37
4 37 49 50 38
4 38 50 51 39
4 39 51 52 40
4 40 52 53 41
4 41 53 54 42
4 42 54 55 43
4 43 55 56 44
4 44 56 57 45
4 45 57 58 46
4 46 58 59 47
4 47 59 48 36
4 48 60 61 49
4 49 61 62 50
4 50 62 63 51
4 51 63 64 52
4 52 64 65 53
4 53 65 66 54
4 54 66 67 55
4 55 67 68 56
4 56 68 69 57
4 57 69 70 58
4 58 70 71 59
4 59 71 60 48
4 60 72 73 61
4 61 73 74 62
4 62 74 75 63
4 63 75 76 64
4 64 76 77 65
4 65 77 78 66
4 66 78 79 67
4 67 79 80 68
4 68 80 81 69
4 69 81 82 70
4 70 82 83 71
4 71 83 72 60
4 75 84 85 76
4 76 85 86 77
4 77 86 87 78
4 78 87 88 79
4 79 88 89 80
4 80 89 90 81
4 84 91 92 85
4 85 92 93 86
4 86 93 94 87
4 87 94 95 88
4 88 95 96 89
4 89 96 97 90
4 91 98 99 92
4 92 99 100 93
4 93 100 101 94
4 94 101 102 95
4 95 102 103 96
4 96 103 104 97
4 98 105 106 99
4 99 106 107 100
4 100 107 108 101
4 101 108 109 102
4 102 109 110 103
4 103 110 111 104
4 105 112 113 106
4 106 113 114 107
4 107 114 115 108
4 108 115 116 109
4 109 116 117 110
4 110 117 118 111
4 112 119 120 113
4 113 120 121 114
4 114 121 122 115
4 115 122 123 116
4 116 123 124 117
4 117 124 125 118
4 119 126 127 120
4 120 127 128 121
4 121 128 129 122
4 122 129 130 123
4 123 130 131 124
4 124 131 132 125
4 126 133 134 127
4 127 134 135 128
4 128 135 136 129
4 129 136 137 130
4 130 137 138 131
4 131 138 139 132
4 133 140 141 134
4 134 141 142 135
4 135 142 143 136
4 136 143 144 137
4 137 144 145 138
4 138 145 146 139
4 140 147 148 141
4 141 148 149 142
4 142 149 150 143
4 143 150 151 144
4 144 151 152 145
4 145 152 153 146
4 147 154 155 148
4 148 155 156 149
4 149 156 157 150
4 150 157 158 151
4 151 158 159 152
4 152 159 160 153
4 154 161 162 155
4 155 162 163 156
4 156 163 164 157
4 157 164 165 158
4 158 165 166 159
4 159 166 167 160
4 168 169 170 171
4 171 170 172 173
4 173 172 174 161
4 161 174 175 162
4 162 175 176 163
4 163 176 177 164
4 164 177 178 165
4 165 178 179 166
4 166 179 180 167
4 167 180 181 182
4 182 181 183 184
4 184 183 169 168
4 169 185 186 170
4 170 186 187 172
4 172 187 188 174
4 174 188 189 175
4 175 189 190 176
4 176 190 191 177
4 177 191 192 178
4 178 192 193 179
4 179 193 194 180
4 180 194 195 181
4 181 195 196 183
4 183 196 185 169
4 185 197 198 186
4 186 198 199 187
4 187 199 200 188
4 188 200 201 189
4 189 201 202 190
4 190 202 203 191
4 191 203 204 192
4 192 204 205 193
4 193 205 206 194
4 194 206 207 195
4 195 207 208 196
4 196 208 197 185
4 197 209 210 198
4 198 210 211 199
4 199 211 212 200
4 200 212 213 201
4 201 213 214 202
4 202 214 215 203
4 203 215 216 204
4 204 216 217 205
4 205 217 218 206
4 206 218 219 207
4 207 219 220 208
4 208 220 209 197
4 209 221 222 210
4 210 222 223 211
4 211 223 224 212
4 212 224 225 213
4 213 225 226 214
4 214 226 227 215
4 215 227 228 216
4 216 228 229 217
4 217 229 230 218
4 218 230 231 219
4 219 231 232 220
4 220 232 221 209
4 221 233 234 222
4 222 234 235 223
4 223 235 236 224
4 224 236 237 225
4 225 237 238 226
4 226 238 239 227
4 227 239 240 228
4 228 240 241 229
4 229 241 242 230
4 230 242 243 231
4 231 243 244 232
4 232 244 233 221
4 153 160 245 246
4 182 184 247 248
4 97 104 249 250
4 90 97 250 251
4 168 171 252 253
4 140 133 254 255
4 154 147 256 257
4 112 105 258 259
4 118 125 260 261
4 73 72 262 263
4 81 90 251 264
4 98 91 265 266
4 75 74 267 268
4 126 119 269 270
4 72 83 271 262
4 91 84 272 265
4 105 98 266 258
4 171 173 273 252
4 173 161 274 273
4 83 82 275 271
4 139 146 276 277
4 111 118 261 278
4 125 132 279 260
4 104 111 278 249
4 119 112 259 269
4 160 167 280 245
4 84 75 268 272
4 147 140 255 256
4 132 139 277 279
4 161 154 257 274
4 167 182 248 280
4 184 168 253 247
4 133 126 270 254
4 74 73 263 267
4 82 81 264 275
4 146 153 246 276
4 269 259 261 260
4 281 282 283 284
4 285 286 282 281
4 287 288 286 285
4 289 290 288 287
4 291 292 290 289
4 293 294 292 291
4 295 296 294 293
4 297 298 296 295
4 299 300 298 297
4 301 302 300 299
4 303 304 302 301
4 283 304 303 284
4 282 305 306 283
4 286 307 305 282
4 288 308 307 286
4 290 309 308 288
4 292 310 309 290
4 294 311 310 292
4 296 312 311 294
4 298 313 312 296
4 300 314 313 298
4 302 315 314 300
4 304 316 315 302
4 283 306 316 304
4 305 317 318 306
4 307 319 317 305
4 308 320 319 307
4 309 321 320 308
4 310 322 321 309
4 311 323 322 310
4 312 324 323 311
4 313 325 324 312
4 314 326 325 313
4 315 327 326 314
4 316 328 327 315
4 306 318 328 316
4 317 329 330 318
4 319 331 329 317
4 320 332 331 319
4 321 333 332 320
4 322 334 333 321
4 323 335 334 322
4 324 336 335 323
4 325 337 336 324
4 326 338 337 325
4 327 339 338 326
4 328 340 339 327
4 318 330 340 328
4 329 341 342 330
4 331 343 341 329
4 332 344 343 331
4 333 345 344 332
4 334 346 345 333
4 335 347 346 334
4 336 348 347 335
4 337 349 348 336
4 338 350 349 337
4 339 351 350 338
4 340 352 351 339
4 330 342 352 340
4 341 353 354 342
4 343 355 353 341
4 344 356 355 343
4 345 357 356 344
4 346 358 357 345
4 347 359 358 346
4 348 360 359 347
4 349 361 360 348
4 350 362 361 349
4 351 363 362 350
4 352 364 363 351
4 342 354 364 352
4 357 365 366 356
4 358 367 365 357
4 359 368 367 358
4 360 369 368 359
4 361 370 369 360
4 362 371 370 361
4 365 372 373 366
4 367 374 372 365
4 368 375 374 367
4 369 376 375 368
4 370 377 376 369
4 371 378 377 370
4 372 379 380 373
4 374 381 379 372
4 375 382 381 374
4 376 383 382 375
4 377 384 383 376
4 378 385 384 377
4 379 386 387 380
4 381 388 386 379
4 382 389 388 381
4 383 390 389 382
4 384 391 390 383
4 385 392 391 384
4 386 393 394 387
4 388 395 393 386
4 389 396 395 388
4 390 397 396 389
4 391 398 397 390
4 392 399 398 391
4 393 400 401 394
4 395 402 400 393
4 396 403 402 395
4 397 404 403 396
4 398 405 404 397
4 399 406 405 398
4 400 407 408 401
4 402 409 407 400
4 403 410 409 402
4 404 411 410 403
4 405 412 411 404
4 406 413 412 405
4 407 414 415 408
4 409 416 414 407
4 410 417 416 409
4 411 418 417 410
4 412 419 418 411
4 413 420 419 412
4 414 421 422 415
4 416 423 421 414
4 417 424 423 416
4 418 425 424 417
4 419 426 425 418
4 420 427 426 419
4 421 428 429 422
4 423 430 428 421
4 424 431 430 423
4 425 432 431 424
4 426 433 432 425
4 427 434 433 426
4 428 435 436 429
4 430 437 435 428
4 431 438 437 430
4 432 439 438 431
4 433 440 439 432
4 434 441 440 433
4 435 442 443 436
4 437 444 442 435
4 438 445 444 437
4 439 446 445 438
4 440 447 446 439
4 441 448 447 440
4 449 450 451 452
4 453 454 450 449
4 443 455 454 453
4 442 456 455 443
4 444 457 456 442
4 445 458 457 444
4 446 459 458 445
4 447 460 459 446
4 448 461 460 447
4 462 463 461 448
4 464 465 463 462
4 452 451 465 464
4 450 466 467 451
4 454 468 466 450
4 455 469 468 454
4 456 470 469 455
4 457 471 470 456
4 458 472 471 457
4 459 473 472 458
4 460 474 473 459
4 461 475 474 460
4 463 476 475 461
4 465 477 476 463
4 451 467 477 465
4 466 478 479 467
4 468 480 478 466
4 469 481 480 468
4 470 482 481 469
4 471 483 482 470
4 472 484 483 471
4 473 485 484 472
4 474 486 485 473
4 475 487 486 474
4 476 488 487 475
4 477 489 488 476
4 467 479 489 477
4 478 490 491 479
4 480 492 490 478
4 481 493 492 480
4 482 494 493 481
4 483 495 494 482
4 484 496 495 483
4 485 497 496 484
4 486 498 497 485
4 487 499 498 486
4 488 500 499 487
4 489 501 500 488
4 479 491 501 489
4 490 502 503 491
4 492 504 502 490
4 493 505 504 492
4 494 506 505 493
4 495 507 506 494
4 496 508 507 495
4 497 509 508 496
4 498 510 509 497
4 499 511 510 498
4 500 512 511 499
4 501 513 512 500
4 491 503 513 501
4 502 514 515 503
4 504 516 514 502
4 505 517 516 504
4 506 518 517 505
4 507 519 518 506
4 508 520 519 507
4 509 521 520 508
4 510 522 521 509
4 511 523 522 510
4 512 524 523 511
4 513 525 524 512
4 503 515 525 513
4 526 527 441 434
4 528 529 464 462
4 530 531 385 378
4 532 530 378 371
4 533 534 449 452
4 535 536 415 422
4 537 538 429 436
4 539 540 387 394
4 541 542 406 399
4 543 544 354 353
4 545 532 371 362
4 546 547 373 380
4 548 549 355 356
4 550 551 401 408
4 544 552 364 354
4 547 553 366 373
4 540 546 380 387
4 534 554 453 449
4 554 555 443 453
4 552 556 363 364
4 557 558 427 420
4 559 541 399 392
4 542 560 413 406
4 531 559 392 385
4 551 539 394 401
4 527 561 448 441
4 553 548 356 366
4 538 535 422 429
4 560 557 420 413
4 555 537 436 443
4 561 528 462 448
4 529 533 452 464
4 536 550 408 415
4 549 543 353 355
4 556 545 362 363
4 558 526 434 427
4 542 541 539 551
4 9 11 291 289
4 7 9 289 287
4 5 7 287 285
4 3 5 285 281
4 0 3 281 284
4 17 19 299 297
4 13 15 295 293
4 19 21 301 299
4 11 13 293 291
4 242 241 522 523
4 238 237 518 519
4 237 236 517 518
4 21 23 303 301
4 236 235 516 517
4 235 234 514 516
4 241 240 521 522
4 239 238 519 520
4 234 233 515 514
4 243 242 523 524
4 244 243 524 525
4 240 239 520 521
4 23 0 284 303
4 233 244 525 515
4 15 17 297 295
4 279 277 557 560
4 248 247 529 528
4 280 248 528 561
4 263 262 544 543
4 256 255 535 538
4 245 280 561 527
4 268 267 549 548
4 254 270 550 536
4 271 275 556 552
4 266 265 547 546
4 252 273 554 534
4 276 246 526 558
4 247 253 533 529
4 257 256 538 537
4 251 250 530 532
4 265 272 553 547
4 260 279 560 542
4 278 261 541 559
4 273 274 555 554
4 259 258 540 539
4 262 271 552 544
4 264 251 532 545
4 274 257 537 555
4 270 269 551 550
4 246 245 527 526
4 258 266 546 540
4 275 264 545 556
4 253 252 534 533
4 249 278 559 531
4 250 249 531 530
4 267 263 543 549
4 272 268 548 553
4 277 276 558 557
4 255 254 536 535
4 261 259 539 541
4 269 260 542 551
